<mxfile host="app.diagrams.net" agent="Mozilla/5.0 (Windows NT 10.0; Win64; x64) AppleWebKit/537.36 (KHTML, like Gecko) Chrome/130.0.0.0 Safari/537.36" version="24.8.3">
  <diagram name="Page-1" id="qW2CGXD6ZPihr70Xx7oz">
    <mxGraphModel dx="1050" dy="522" grid="1" gridSize="10" guides="1" tooltips="1" connect="1" arrows="1" fold="1" page="1" pageScale="1" pageWidth="827" pageHeight="1169" math="0" shadow="0">
      <root>
        <mxCell id="0" />
        <mxCell id="1" parent="0" />
        <mxCell id="v-Zwyl4iBoN8FRhOQfQJ-6" value="" style="rounded=0;whiteSpace=wrap;html=1;rotation=90;fillColor=none;strokeWidth=2;" vertex="1" parent="1">
          <mxGeometry x="-122.5" y="892.5" width="1195" height="460" as="geometry" />
        </mxCell>
        <mxCell id="v-Zwyl4iBoN8FRhOQfQJ-1" style="rounded=0;orthogonalLoop=1;jettySize=auto;html=1;exitX=0.5;exitY=0.5;exitDx=0;exitDy=0;exitPerimeter=0;entryX=0;entryY=0.5;entryDx=0;entryDy=0;endArrow=none;endFill=0;" edge="1" parent="1" source="cfiLcG1i9u_BO0W4fc_z-5" target="cfiLcG1i9u_BO0W4fc_z-13">
          <mxGeometry relative="1" as="geometry" />
        </mxCell>
        <mxCell id="v-Zwyl4iBoN8FRhOQfQJ-11" style="rounded=0;orthogonalLoop=1;jettySize=auto;html=1;exitX=0.5;exitY=0.5;exitDx=0;exitDy=0;exitPerimeter=0;entryX=0;entryY=0.5;entryDx=0;entryDy=0;endArrow=none;endFill=0;" edge="1" parent="1" source="cfiLcG1i9u_BO0W4fc_z-5" target="v-Zwyl4iBoN8FRhOQfQJ-8">
          <mxGeometry relative="1" as="geometry" />
        </mxCell>
        <mxCell id="v-Zwyl4iBoN8FRhOQfQJ-27" style="rounded=0;orthogonalLoop=1;jettySize=auto;html=1;exitX=0.5;exitY=0.5;exitDx=0;exitDy=0;exitPerimeter=0;entryX=0;entryY=0.5;entryDx=0;entryDy=0;endArrow=none;endFill=0;" edge="1" parent="1" source="cfiLcG1i9u_BO0W4fc_z-5" target="v-Zwyl4iBoN8FRhOQfQJ-14">
          <mxGeometry relative="1" as="geometry" />
        </mxCell>
        <mxCell id="cfiLcG1i9u_BO0W4fc_z-5" value="User" style="shape=umlActor;verticalLabelPosition=bottom;verticalAlign=top;html=1;outlineConnect=0;" parent="1" vertex="1">
          <mxGeometry x="30" y="650" width="60" height="90" as="geometry" />
        </mxCell>
        <mxCell id="v-Zwyl4iBoN8FRhOQfQJ-3" style="rounded=0;orthogonalLoop=1;jettySize=auto;html=1;exitX=0.5;exitY=0.5;exitDx=0;exitDy=0;exitPerimeter=0;entryX=0;entryY=0.5;entryDx=0;entryDy=0;endArrow=none;endFill=0;" edge="1" parent="1" source="cfiLcG1i9u_BO0W4fc_z-11" target="cfiLcG1i9u_BO0W4fc_z-13">
          <mxGeometry relative="1" as="geometry" />
        </mxCell>
        <mxCell id="v-Zwyl4iBoN8FRhOQfQJ-25" style="rounded=0;orthogonalLoop=1;jettySize=auto;html=1;exitX=0.5;exitY=0.5;exitDx=0;exitDy=0;exitPerimeter=0;entryX=0;entryY=0;entryDx=0;entryDy=0;endArrow=none;endFill=0;" edge="1" parent="1" source="cfiLcG1i9u_BO0W4fc_z-11" target="v-Zwyl4iBoN8FRhOQfQJ-15">
          <mxGeometry relative="1" as="geometry" />
        </mxCell>
        <mxCell id="cfiLcG1i9u_BO0W4fc_z-11" value="Clinics" style="shape=umlActor;verticalLabelPosition=bottom;verticalAlign=top;html=1;outlineConnect=0;" vertex="1" parent="1">
          <mxGeometry x="30" y="900" width="60" height="90" as="geometry" />
        </mxCell>
        <mxCell id="cfiLcG1i9u_BO0W4fc_z-12" value="Admin" style="shape=umlActor;verticalLabelPosition=bottom;verticalAlign=top;html=1;outlineConnect=0;" vertex="1" parent="1">
          <mxGeometry x="770" y="720" width="60" height="90" as="geometry" />
        </mxCell>
        <mxCell id="cfiLcG1i9u_BO0W4fc_z-13" value="Log in&amp;nbsp;" style="ellipse;whiteSpace=wrap;html=1;" vertex="1" parent="1">
          <mxGeometry x="375" y="610" width="150" height="50" as="geometry" />
        </mxCell>
        <mxCell id="cfiLcG1i9u_BO0W4fc_z-18" style="rounded=0;orthogonalLoop=1;jettySize=auto;html=1;exitX=0;exitY=0;exitDx=0;exitDy=0;entryX=1;entryY=1;entryDx=0;entryDy=0;strokeColor=none;dashed=1;" edge="1" parent="1" source="cfiLcG1i9u_BO0W4fc_z-14" target="cfiLcG1i9u_BO0W4fc_z-13">
          <mxGeometry relative="1" as="geometry" />
        </mxCell>
        <mxCell id="cfiLcG1i9u_BO0W4fc_z-20" value="&amp;lt;&amp;lt;include&amp;gt;&amp;gt;" style="rounded=0;orthogonalLoop=1;jettySize=auto;html=1;exitX=0.5;exitY=0;exitDx=0;exitDy=0;dashed=1;endArrow=none;endFill=0;entryX=0.5;entryY=1;entryDx=0;entryDy=0;align=center;startArrow=open;startFill=0;" edge="1" parent="1" source="cfiLcG1i9u_BO0W4fc_z-14" target="cfiLcG1i9u_BO0W4fc_z-13">
          <mxGeometry x="-0.2" relative="1" as="geometry">
            <mxPoint x="495" y="650" as="targetPoint" />
            <mxPoint as="offset" />
          </mxGeometry>
        </mxCell>
        <mxCell id="cfiLcG1i9u_BO0W4fc_z-14" value="Register" style="ellipse;whiteSpace=wrap;html=1;" vertex="1" parent="1">
          <mxGeometry x="380" y="710" width="140" height="55" as="geometry" />
        </mxCell>
        <mxCell id="v-Zwyl4iBoN8FRhOQfQJ-10" value="&amp;lt;&amp;lt;extened&amp;gt;&amp;gt;" style="edgeStyle=orthogonalEdgeStyle;rounded=0;orthogonalLoop=1;jettySize=auto;html=1;exitX=0.5;exitY=1;exitDx=0;exitDy=0;dashed=1;endArrow=none;endFill=0;startArrow=open;startFill=0;" edge="1" parent="1" source="v-Zwyl4iBoN8FRhOQfQJ-8" target="v-Zwyl4iBoN8FRhOQfQJ-9">
          <mxGeometry x="0.1111" relative="1" as="geometry">
            <mxPoint as="offset" />
          </mxGeometry>
        </mxCell>
        <mxCell id="v-Zwyl4iBoN8FRhOQfQJ-8" value="search clinic/adoption" style="ellipse;whiteSpace=wrap;html=1;" vertex="1" parent="1">
          <mxGeometry x="380" y="800" width="140" height="55" as="geometry" />
        </mxCell>
        <mxCell id="v-Zwyl4iBoN8FRhOQfQJ-9" value="view availability" style="ellipse;whiteSpace=wrap;html=1;" vertex="1" parent="1">
          <mxGeometry x="380" y="900" width="140" height="55" as="geometry" />
        </mxCell>
        <mxCell id="v-Zwyl4iBoN8FRhOQfQJ-13" value="&amp;lt;&amp;lt;extened&amp;gt;&amp;gt;" style="rounded=0;orthogonalLoop=1;jettySize=auto;html=1;exitX=0;exitY=0;exitDx=0;exitDy=0;entryX=1;entryY=1;entryDx=0;entryDy=0;dashed=1;endArrow=open;endFill=0;" edge="1" parent="1" source="v-Zwyl4iBoN8FRhOQfQJ-12" target="v-Zwyl4iBoN8FRhOQfQJ-8">
          <mxGeometry relative="1" as="geometry" />
        </mxCell>
        <mxCell id="v-Zwyl4iBoN8FRhOQfQJ-12" value="view rates and reviews" style="ellipse;whiteSpace=wrap;html=1;" vertex="1" parent="1">
          <mxGeometry x="540" y="897.5" width="140" height="55" as="geometry" />
        </mxCell>
        <mxCell id="v-Zwyl4iBoN8FRhOQfQJ-16" value="&amp;lt;&amp;lt;include&amp;gt;&amp;gt;" style="rounded=0;orthogonalLoop=1;jettySize=auto;html=1;exitX=0.5;exitY=1;exitDx=0;exitDy=0;entryX=1;entryY=0;entryDx=0;entryDy=0;dashed=1;endArrow=open;endFill=0;" edge="1" parent="1" source="v-Zwyl4iBoN8FRhOQfQJ-14" target="v-Zwyl4iBoN8FRhOQfQJ-15">
          <mxGeometry relative="1" as="geometry">
            <Array as="points" />
          </mxGeometry>
        </mxCell>
        <mxCell id="v-Zwyl4iBoN8FRhOQfQJ-14" value="book appointment" style="ellipse;whiteSpace=wrap;html=1;" vertex="1" parent="1">
          <mxGeometry x="385" y="990" width="140" height="55" as="geometry" />
        </mxCell>
        <mxCell id="v-Zwyl4iBoN8FRhOQfQJ-15" value="schedule appointment" style="ellipse;whiteSpace=wrap;html=1;" vertex="1" parent="1">
          <mxGeometry x="344" y="1090" width="140" height="55" as="geometry" />
        </mxCell>
      </root>
    </mxGraphModel>
  </diagram>
</mxfile>
